<svg width="14" height="14" viewBox="0 0 14 14" fill="none" xmlns="http://www.w3.org/2000/svg">
<path fill-rule="evenodd" clip-rule="evenodd" d="M6.64171 0.706374C6.85235 0.542537 7.14732 0.542537 7.35797 0.706374L12.608 4.78971C12.7501 4.90022 12.8332 5.07015 12.8332 5.25016V11.6668C12.8332 12.131 12.6488 12.5761 12.3206 12.9043C11.9924 13.2325 11.5473 13.4168 11.0832 13.4168H2.9165C2.45237 13.4168 2.00726 13.2325 1.67907 12.9043C1.35088 12.5761 1.1665 12.131 1.1665 11.6668V5.25016C1.1665 5.07015 1.24961 4.90022 1.39171 4.78971L6.64171 0.706374ZM2.33317 5.53546V11.6668C2.33317 11.8215 2.39463 11.9699 2.50402 12.0793C2.61342 12.1887 2.76179 12.2502 2.9165 12.2502H11.0832C11.2379 12.2502 11.3863 12.1887 11.4956 12.0793C11.605 11.9699 11.6665 11.8215 11.6665 11.6668V5.53546L6.99984 1.90583L2.33317 5.53546Z" fill="white"/>
<path fill-rule="evenodd" clip-rule="evenodd" d="M4.6665 7.00016C4.6665 6.678 4.92767 6.41683 5.24984 6.41683H8.74984C9.072 6.41683 9.33317 6.678 9.33317 7.00016V12.8335C9.33317 13.1557 9.072 13.4168 8.74984 13.4168C8.42767 13.4168 8.1665 13.1557 8.1665 12.8335V7.5835H5.83317V12.8335C5.83317 13.1557 5.572 13.4168 5.24984 13.4168C4.92767 13.4168 4.6665 13.1557 4.6665 12.8335V7.00016Z" fill="white"/>
</svg>
