<svg width="8" height="8" viewBox="0 0 8 8" fill="none" xmlns="http://www.w3.org/2000/svg">
<path fill-rule="evenodd" clip-rule="evenodd" d="M4.00017 0.333496C4.12705 0.333496 4.24292 0.40552 4.29907 0.519288L5.25159 2.44898L7.38171 2.76033C7.50723 2.77868 7.61146 2.86668 7.65059 2.98735C7.68971 3.10802 7.65696 3.24044 7.56608 3.32895L6.02501 4.82995L6.38871 6.95048C6.41016 7.07554 6.35874 7.20194 6.25608 7.27651C6.15342 7.35109 6.01733 7.36091 5.90502 7.30185L4.00017 6.30011L2.09532 7.30185C1.98302 7.36091 1.84692 7.35109 1.74426 7.27651C1.6416 7.20194 1.59019 7.07554 1.61164 6.95048L1.97533 4.82995L0.434262 3.32895C0.343389 3.24044 0.310631 3.10802 0.349757 2.98735C0.388883 2.86668 0.49311 2.77868 0.61863 2.76033L2.74875 2.44898L3.70127 0.519288C3.75743 0.40552 3.8733 0.333496 4.00017 0.333496ZM4.00017 1.41991L3.26907 2.90104C3.22056 2.99932 3.12683 3.06747 3.01838 3.08333L1.38298 3.32236L2.56608 4.47471C2.64471 4.55129 2.6806 4.66167 2.66204 4.76984L2.3829 6.39739L3.84502 5.62847C3.94215 5.57739 4.0582 5.57739 4.15532 5.62847L5.61745 6.39739L5.3383 4.76984C5.31975 4.66167 5.35564 4.55129 5.43426 4.47471L6.61737 3.32236L4.98196 3.08333C4.87351 3.06747 4.77978 2.99932 4.73127 2.90104L4.00017 1.41991Z" fill="#F2994A"/>
<path d="M2.33333 5L1 3L3 2.66667L4 1L5 2.66667L7 3.33333L5.66667 4.66667L6 7L4 6L2 7L2.33333 5Z" fill="#F2994A"/>
</svg>
